<?xml version="1.0" encoding="UTF-8" standalone="no"?>
<!DOCTYPE svg PUBLIC "-//W3C//DTD SVG 1.1//EN"
 "http://www.w3.org/Graphics/SVG/1.1/DTD/svg11.dtd">
<!-- Generated by graphviz version 2.43.0 (0)
 -->
<!-- Title: dependency&#45;cruiser output Pages: 1 -->
<svg width="162pt" height="106pt"
 viewBox="0.00 0.00 162.00 106.00" xmlns="http://www.w3.org/2000/svg" xmlns:xlink="http://www.w3.org/1999/xlink">
<g id="graph0" class="graph" transform="scale(1 1) rotate(0) translate(4 102)">
<title>dependency&#45;cruiser output</title>
<polygon fill="white" stroke="transparent" points="-4,4 -4,-102 158,-102 158,4 -4,4"/>
<g id="clust1" class="cluster">
<title>cluster_src</title>
<path fill="#ffffff" stroke="black" stroke-width="2" d="M20,-8C20,-8 134,-8 134,-8 140,-8 146,-14 146,-20 146,-20 146,-78 146,-78 146,-84 140,-90 134,-90 134,-90 20,-90 20,-90 14,-90 8,-84 8,-78 8,-78 8,-20 8,-20 8,-14 14,-8 20,-8"/>
<text text-anchor="middle" x="77" y="-78.8" font-family="Helvetica,sans-Serif" font-weight="bold" font-size="9.00">src</text>
</g>
<!-- src/calc.d.ts -->
<g id="node1" class="node">
<title>src/calc.d.ts</title>
<g id="a_node1"><a xlink:href="src/calc.d.ts" xlink:title="calc.d.ts">
<path fill="#ccffcc" stroke="black" d="M65,-64C65,-64 22,-64 22,-64 19,-64 16,-61 16,-58 16,-58 16,-52 16,-52 16,-49 19,-46 22,-46 22,-46 65,-46 65,-46 68,-46 71,-49 71,-52 71,-52 71,-58 71,-58 71,-61 68,-64 65,-64"/>
<text text-anchor="start" x="24" y="-52.8" font-family="Helvetica,sans-Serif" font-size="9.00">calc.d.ts</text>
</a>
</g>
</g>
<!-- src/calc.js -->
<g id="node2" class="node">
<title>src/calc.js</title>
<g id="a_node2"><a xlink:href="src/calc.js" xlink:title="calc.js">
<path fill="#ffffcc" stroke="black" d="M132,-34C132,-34 90,-34 90,-34 87,-34 84,-31 84,-28 84,-28 84,-22 84,-22 84,-19 87,-16 90,-16 90,-16 132,-16 132,-16 135,-16 138,-19 138,-22 138,-22 138,-28 138,-28 138,-31 135,-34 132,-34"/>
<text text-anchor="start" x="97" y="-22.8" font-family="Helvetica,sans-Serif" font-size="9.00">calc.js</text>
</a>
</g>
</g>
<!-- src/index.ts -->
<g id="node3" class="node">
<title>src/index.ts</title>
<g id="a_node3"><a xlink:href="src/index.ts" xlink:title="index.ts">
<path fill="#ddfeff" stroke="black" d="M64.5,-34C64.5,-34 22.5,-34 22.5,-34 19.5,-34 16.5,-31 16.5,-28 16.5,-28 16.5,-22 16.5,-22 16.5,-19 19.5,-16 22.5,-16 22.5,-16 64.5,-16 64.5,-16 67.5,-16 70.5,-19 70.5,-22 70.5,-22 70.5,-28 70.5,-28 70.5,-31 67.5,-34 64.5,-34"/>
<text text-anchor="start" x="25" y="-22.8" font-family="Helvetica,sans-Serif" font-size="9.00">index.ts</text>
</a>
</g>
</g>
<!-- src/index.ts&#45;&gt;src/calc.js -->
<g id="edge1" class="edge">
<title>src/index.ts&#45;&gt;src/calc.js</title>
<path fill="none" stroke="#000000" stroke-width="2" stroke-opacity="0.200000" d="M70.76,-25C73.03,-25 75.35,-25 77.65,-25"/>
<polygon fill="#000000" fill-opacity="0.200000" stroke="#000000" stroke-width="2" stroke-opacity="0.200000" points="77.73,-27.1 83.73,-25 77.73,-22.9 77.73,-27.1"/>
</g>
</g>
</svg>
