<?xml version="1.0" encoding="UTF-8" standalone="no"?>
<!DOCTYPE svg PUBLIC "-//W3C//DTD SVG 1.1//EN"
 "http://www.w3.org/Graphics/SVG/1.1/DTD/svg11.dtd">
<!-- Generated by graphviz version 2.43.0 (0)
 -->
<!-- Title: dependency&#45;cruiser output Pages: 1 -->
<svg width="872pt" height="170pt"
 viewBox="0.00 0.00 871.91 170.00" xmlns="http://www.w3.org/2000/svg" xmlns:xlink="http://www.w3.org/1999/xlink">
<g id="graph0" class="graph" transform="scale(1 1) rotate(0) translate(4 166)">
<title>dependency&#45;cruiser output</title>
<polygon fill="white" stroke="transparent" points="-4,4 -4,-166 867.91,-166 867.91,4 -4,4"/>
<g id="clust1" class="cluster">
<title>cluster_src</title>
<path fill="#ffffff" stroke="black" stroke-width="2" d="M630.91,-8C630.91,-8 843.91,-8 843.91,-8 849.91,-8 855.91,-14 855.91,-20 855.91,-20 855.91,-142 855.91,-142 855.91,-148 849.91,-154 843.91,-154 843.91,-154 630.91,-154 630.91,-154 624.91,-154 618.91,-148 618.91,-142 618.91,-142 618.91,-20 618.91,-20 618.91,-14 624.91,-8 630.91,-8"/>
<text text-anchor="middle" x="737.41" y="-142.8" font-family="Helvetica,sans-Serif" font-weight="bold" font-size="9.00">src</text>
</g>
<g id="clust2" class="cluster">
<title>cluster_src/_package1</title>
<path fill="#ffffff" stroke="black" stroke-width="2" d="M700.91,-16C700.91,-16 762.91,-16 762.91,-16 768.91,-16 774.91,-22 774.91,-28 774.91,-28 774.91,-116 774.91,-116 774.91,-122 768.91,-128 762.91,-128 762.91,-128 700.91,-128 700.91,-128 694.91,-128 688.91,-122 688.91,-116 688.91,-116 688.91,-28 688.91,-28 688.91,-22 694.91,-16 700.91,-16"/>
<text text-anchor="middle" x="731.91" y="-116.8" font-family="Helvetica,sans-Serif" font-weight="bold" font-size="9.00">_package1</text>
</g>
<g id="clust3" class="cluster">
<title>cluster_src/_package1/_package2</title>
<path fill="#ffffff" stroke="black" stroke-width="2" d="M708.91,-50C708.91,-50 754.91,-50 754.91,-50 760.91,-50 766.91,-56 766.91,-62 766.91,-62 766.91,-90 766.91,-90 766.91,-96 760.91,-102 754.91,-102 754.91,-102 708.91,-102 708.91,-102 702.91,-102 696.91,-96 696.91,-90 696.91,-90 696.91,-62 696.91,-62 696.91,-56 702.91,-50 708.91,-50"/>
<text text-anchor="middle" x="731.91" y="-90.8" font-family="Helvetica,sans-Serif" font-weight="bold" font-size="9.00">_package2</text>
</g>
<!-- src/_package1/_package2/calc.ts -->
<g id="node1" class="node">
<title>src/_package1/_package2/calc.ts</title>
<g id="a_node1"><a xlink:href="src/_package1/_package2/calc.ts" xlink:title="calc.ts">
<path fill="#ddfeff" stroke="black" d="M752.91,-76C752.91,-76 710.91,-76 710.91,-76 707.91,-76 704.91,-73 704.91,-70 704.91,-70 704.91,-64 704.91,-64 704.91,-61 707.91,-58 710.91,-58 710.91,-58 752.91,-58 752.91,-58 755.91,-58 758.91,-61 758.91,-64 758.91,-64 758.91,-70 758.91,-70 758.91,-73 755.91,-76 752.91,-76"/>
<text text-anchor="start" x="716.91" y="-64.8" font-family="Helvetica,sans-Serif" font-size="9.00">calc.ts</text>
</a>
</g>
</g>
<!-- src/_package1/importer.ts -->
<g id="node2" class="node">
<title>src/_package1/importer.ts</title>
<g id="a_node2"><a xlink:href="src/_package1/importer.ts" xlink:title="importer.ts">
<path fill="#ddfeff" stroke="black" d="M758.91,-42C758.91,-42 704.91,-42 704.91,-42 701.91,-42 698.91,-39 698.91,-36 698.91,-36 698.91,-30 698.91,-30 698.91,-27 701.91,-24 704.91,-24 704.91,-24 758.91,-24 758.91,-24 761.91,-24 764.91,-27 764.91,-30 764.91,-30 764.91,-36 764.91,-36 764.91,-39 761.91,-42 758.91,-42"/>
<text text-anchor="start" x="706.91" y="-30.8" font-family="Helvetica,sans-Serif" font-size="9.00">importer.ts</text>
</a>
</g>
</g>
<!-- src/exporter.ts -->
<g id="node3" class="node">
<title>src/exporter.ts</title>
<g id="a_node3"><a xlink:href="src/exporter.ts" xlink:title="exporter.ts">
<path fill="#ddfeff" stroke="black" d="M841.91,-42C841.91,-42 788.91,-42 788.91,-42 785.91,-42 782.91,-39 782.91,-36 782.91,-36 782.91,-30 782.91,-30 782.91,-27 785.91,-24 788.91,-24 788.91,-24 841.91,-24 841.91,-24 844.91,-24 847.91,-27 847.91,-30 847.91,-30 847.91,-36 847.91,-36 847.91,-39 844.91,-42 841.91,-42"/>
<text text-anchor="start" x="790.91" y="-30.8" font-family="Helvetica,sans-Serif" font-size="9.00">exporter.ts</text>
</a>
</g>
</g>
<!-- src/_package1/importer.ts&#45;&gt;src/exporter.ts -->
<g id="edge1" class="edge">
<title>src/_package1/importer.ts&#45;&gt;src/exporter.ts</title>
<path fill="none" stroke="#000000" stroke-width="2" stroke-opacity="0.200000" d="M765.12,-33C768.91,-33 772.81,-33 776.68,-33"/>
<polygon fill="#000000" fill-opacity="0.200000" stroke="#000000" stroke-width="2" stroke-opacity="0.200000" points="776.7,-35.1 782.7,-33 776.7,-30.9 776.7,-35.1"/>
</g>
<!-- src/index.ts -->
<g id="node4" class="node">
<title>src/index.ts</title>
<g id="a_node4"><a xlink:href="src/index.ts" xlink:title="index.ts">
<path fill="#ddfeff" stroke="black" d="M674.91,-76C674.91,-76 632.91,-76 632.91,-76 629.91,-76 626.91,-73 626.91,-70 626.91,-70 626.91,-64 626.91,-64 626.91,-61 629.91,-58 632.91,-58 632.91,-58 674.91,-58 674.91,-58 677.91,-58 680.91,-61 680.91,-64 680.91,-64 680.91,-70 680.91,-70 680.91,-73 677.91,-76 674.91,-76"/>
<text text-anchor="start" x="635.41" y="-64.8" font-family="Helvetica,sans-Serif" font-size="9.00">index.ts</text>
</a>
</g>
</g>
<!-- src/index.ts&#45;&gt;src/_package1/_package2/calc.ts -->
<g id="edge2" class="edge">
<title>src/index.ts&#45;&gt;src/_package1/_package2/calc.ts</title>
<g id="a_edge2"><a xlink:title="1. &#39;_&#39;から始まるディレクトリ内部のファイルは、同ディレクトリ内のファイルまたは、直上のディレクトリのファイルからのみimport可能">
<path fill="none" stroke="red" stroke-width="2" d="M681.06,-67C686.68,-67 692.67,-67 698.49,-67"/>
<polygon fill="red" stroke="red" stroke-width="2" points="698.7,-69.1 704.7,-67 698.7,-64.9 698.7,-69.1"/>
</a>
</g>
<text text-anchor="middle" x="346.5" y="-59.8" font-family="Helvetica,sans-Serif" font-size="9.00" fill="red">1. &#39;_&#39;から始まるディレクトリ内部のファイルは、同ディレクトリ内のファイルまたは、直上のディレクトリのファイルからのみimport可能</text>
</g>
</g>
</svg>
