<?xml version="1.0" encoding="UTF-8" standalone="no"?>
<!DOCTYPE svg PUBLIC "-//W3C//DTD SVG 1.1//EN"
 "http://www.w3.org/Graphics/SVG/1.1/DTD/svg11.dtd">
<!-- Generated by graphviz version 2.43.0 (0)
 -->
<!-- Title: dependency&#45;cruiser output Pages: 1 -->
<svg width="795pt" height="196pt"
 viewBox="0.00 0.00 794.65 196.00" xmlns="http://www.w3.org/2000/svg" xmlns:xlink="http://www.w3.org/1999/xlink">
<g id="graph0" class="graph" transform="scale(1 1) rotate(0) translate(4 192)">
<title>dependency&#45;cruiser output</title>
<polygon fill="white" stroke="transparent" points="-4,4 -4,-192 790.65,-192 790.65,4 -4,4"/>
<g id="clust1" class="cluster">
<title>cluster_src</title>
<path fill="#ffffff" stroke="black" stroke-width="2" d="M612.15,-8C612.15,-8 766.65,-8 766.65,-8 772.65,-8 778.65,-14 778.65,-20 778.65,-20 778.65,-168 778.65,-168 778.65,-174 772.65,-180 766.65,-180 766.65,-180 612.15,-180 612.15,-180 606.15,-180 600.15,-174 600.15,-168 600.15,-168 600.15,-20 600.15,-20 600.15,-14 606.15,-8 612.15,-8"/>
<text text-anchor="middle" x="689.4" y="-168.8" font-family="Helvetica,sans-Serif" font-weight="bold" font-size="9.00">src</text>
</g>
<g id="clust2" class="cluster">
<title>cluster_src/_package1</title>
<path fill="#ffffff" stroke="black" stroke-width="2" d="M620.15,-42C620.15,-42 758.65,-42 758.65,-42 764.65,-42 770.65,-48 770.65,-54 770.65,-54 770.65,-116 770.65,-116 770.65,-122 764.65,-128 758.65,-128 758.65,-128 620.15,-128 620.15,-128 614.15,-128 608.15,-122 608.15,-116 608.15,-116 608.15,-54 608.15,-54 608.15,-48 614.15,-42 620.15,-42"/>
<text text-anchor="middle" x="689.4" y="-116.8" font-family="Helvetica,sans-Serif" font-weight="bold" font-size="9.00">_package1</text>
</g>
<g id="clust3" class="cluster">
<title>cluster_src/_package1/_package2</title>
<path fill="#ffffff" stroke="black" stroke-width="2" d="M704.65,-50C704.65,-50 750.65,-50 750.65,-50 756.65,-50 762.65,-56 762.65,-62 762.65,-62 762.65,-90 762.65,-90 762.65,-96 756.65,-102 750.65,-102 750.65,-102 704.65,-102 704.65,-102 698.65,-102 692.65,-96 692.65,-90 692.65,-90 692.65,-62 692.65,-62 692.65,-56 698.65,-50 704.65,-50"/>
<text text-anchor="middle" x="727.65" y="-90.8" font-family="Helvetica,sans-Serif" font-weight="bold" font-size="9.00">_package2</text>
</g>
<!-- src/_package1/_package2/calc.ts -->
<g id="node1" class="node">
<title>src/_package1/_package2/calc.ts</title>
<g id="a_node1"><a xlink:href="src/_package1/_package2/calc.ts" xlink:title="calc.ts">
<path fill="#ddfeff" stroke="black" d="M748.65,-76C748.65,-76 706.65,-76 706.65,-76 703.65,-76 700.65,-73 700.65,-70 700.65,-70 700.65,-64 700.65,-64 700.65,-61 703.65,-58 706.65,-58 706.65,-58 748.65,-58 748.65,-58 751.65,-58 754.65,-61 754.65,-64 754.65,-64 754.65,-70 754.65,-70 754.65,-73 751.65,-76 748.65,-76"/>
<text text-anchor="start" x="712.65" y="-64.8" font-family="Helvetica,sans-Serif" font-size="9.00">calc.ts</text>
</a>
</g>
</g>
<!-- src/_package1/importer.ts -->
<g id="node2" class="node">
<title>src/_package1/importer.ts</title>
<g id="a_node2"><a xlink:href="src/_package1/importer.ts" xlink:title="importer.ts">
<path fill="#ddfeff" stroke="black" d="M676.15,-89C676.15,-89 622.15,-89 622.15,-89 619.15,-89 616.15,-86 616.15,-83 616.15,-83 616.15,-77 616.15,-77 616.15,-74 619.15,-71 622.15,-71 622.15,-71 676.15,-71 676.15,-71 679.15,-71 682.15,-74 682.15,-77 682.15,-77 682.15,-83 682.15,-83 682.15,-86 679.15,-89 676.15,-89"/>
<text text-anchor="start" x="624.15" y="-77.8" font-family="Helvetica,sans-Serif" font-size="9.00">importer.ts</text>
</a>
</g>
</g>
<!-- src/_package1/importer.ts&#45;&gt;src/_package1/_package2/calc.ts -->
<g id="edge1" class="edge">
<title>src/_package1/importer.ts&#45;&gt;src/_package1/_package2/calc.ts</title>
<path fill="none" stroke="#000000" stroke-width="2" stroke-opacity="0.200000" d="M682.59,-74.49C686.55,-73.81 690.59,-73.13 694.54,-72.46"/>
<polygon fill="#000000" fill-opacity="0.200000" stroke="#000000" stroke-width="2" stroke-opacity="0.200000" points="695.08,-74.49 700.65,-71.42 694.38,-70.35 695.08,-74.49"/>
</g>
<!-- src/exporter.ts -->
<g id="node3" class="node">
<title>src/exporter.ts</title>
<g id="a_node3"><a xlink:href="src/exporter.ts" xlink:title="exporter.ts">
<path fill="#ddfeff" stroke="black" d="M754.15,-154C754.15,-154 701.15,-154 701.15,-154 698.15,-154 695.15,-151 695.15,-148 695.15,-148 695.15,-142 695.15,-142 695.15,-139 698.15,-136 701.15,-136 701.15,-136 754.15,-136 754.15,-136 757.15,-136 760.15,-139 760.15,-142 760.15,-142 760.15,-148 760.15,-148 760.15,-151 757.15,-154 754.15,-154"/>
<text text-anchor="start" x="703.15" y="-142.8" font-family="Helvetica,sans-Serif" font-size="9.00">exporter.ts</text>
</a>
</g>
</g>
<!-- src/_package1/importer.ts&#45;&gt;src/exporter.ts -->
<g id="edge2" class="edge">
<title>src/_package1/importer.ts&#45;&gt;src/exporter.ts</title>
<path fill="none" stroke="#000000" stroke-width="2" stroke-opacity="0.200000" d="M660.79,-89.04C673.77,-100.07 695.84,-118.82 710.82,-131.55"/>
<polygon fill="#000000" fill-opacity="0.200000" stroke="#000000" stroke-width="2" stroke-opacity="0.200000" points="709.68,-133.33 715.61,-135.62 712.39,-130.13 709.68,-133.33"/>
</g>
<!-- src/index.ts -->
<g id="node4" class="node">
<title>src/index.ts</title>
<g id="a_node4"><a xlink:href="src/index.ts" xlink:title="index.ts">
<path fill="#ddfeff" stroke="black" d="M670.15,-34C670.15,-34 628.15,-34 628.15,-34 625.15,-34 622.15,-31 622.15,-28 622.15,-28 622.15,-22 622.15,-22 622.15,-19 625.15,-16 628.15,-16 628.15,-16 670.15,-16 670.15,-16 673.15,-16 676.15,-19 676.15,-22 676.15,-22 676.15,-28 676.15,-28 676.15,-31 673.15,-34 670.15,-34"/>
<text text-anchor="start" x="630.65" y="-22.8" font-family="Helvetica,sans-Serif" font-size="9.00">index.ts</text>
</a>
</g>
</g>
<!-- src/index.ts&#45;&gt;src/_package1/_package2/calc.ts -->
<g id="edge3" class="edge">
<title>src/index.ts&#45;&gt;src/_package1/_package2/calc.ts</title>
<g id="a_edge3"><a xlink:title="1. &#39;_&#39;から始まるディレクトリ内部のファイルは、同ディレクトリ内のファイルまたは、直上のディレクトリのファイルからのみimport可能">
<path fill="none" stroke="red" stroke-width="2" d="M672.05,-34.06C675.47,-35.62 678.93,-37.3 682.15,-39 690.93,-43.65 700.29,-49.41 708.15,-54.49"/>
<polygon fill="red" stroke="red" stroke-width="2" points="707.16,-56.35 713.33,-57.88 709.46,-52.84 707.16,-56.35"/>
</a>
</g>
<text text-anchor="middle" x="346.5" y="-37.9" font-family="Helvetica,sans-Serif" font-size="9.00" fill="red">1. &#39;_&#39;から始まるディレクトリ内部のファイルは、同ディレクトリ内のファイルまたは、直上のディレクトリのファイルからのみimport可能</text>
</g>
</g>
</svg>
