<?xml version="1.0" encoding="UTF-8" standalone="no"?>
<!DOCTYPE svg PUBLIC "-//W3C//DTD SVG 1.1//EN"
 "http://www.w3.org/Graphics/SVG/1.1/DTD/svg11.dtd">
<!-- Generated by graphviz version 2.43.0 (0)
 -->
<!-- Title: dependency&#45;cruiser output Pages: 1 -->
<svg width="1107pt" height="196pt"
 viewBox="0.00 0.00 1106.85 196.00" xmlns="http://www.w3.org/2000/svg" xmlns:xlink="http://www.w3.org/1999/xlink">
<g id="graph0" class="graph" transform="scale(1 1) rotate(0) translate(4 192)">
<title>dependency&#45;cruiser output</title>
<polygon fill="white" stroke="transparent" points="-4,4 -4,-192 1102.85,-192 1102.85,4 -4,4"/>
<g id="clust1" class="cluster">
<title>cluster_src</title>
<path fill="#ffffff" stroke="black" stroke-width="2" d="M612.15,-8C612.15,-8 849.15,-8 849.15,-8 855.15,-8 861.15,-14 861.15,-20 861.15,-20 861.15,-168 861.15,-168 861.15,-174 855.15,-180 849.15,-180 849.15,-180 612.15,-180 612.15,-180 606.15,-180 600.15,-174 600.15,-168 600.15,-168 600.15,-20 600.15,-20 600.15,-14 606.15,-8 612.15,-8"/>
<text text-anchor="middle" x="730.65" y="-168.8" font-family="Helvetica,sans-Serif" font-weight="bold" font-size="9.00">src</text>
</g>
<g id="clust2" class="cluster">
<title>cluster_src/_package1</title>
<path fill="#ffffff" stroke="black" stroke-width="2" d="M620.15,-42C620.15,-42 841.15,-42 841.15,-42 847.15,-42 853.15,-48 853.15,-54 853.15,-54 853.15,-116 853.15,-116 853.15,-122 847.15,-128 841.15,-128 841.15,-128 620.15,-128 620.15,-128 614.15,-128 608.15,-122 608.15,-116 608.15,-116 608.15,-54 608.15,-54 608.15,-48 614.15,-42 620.15,-42"/>
<text text-anchor="middle" x="730.65" y="-116.8" font-family="Helvetica,sans-Serif" font-weight="bold" font-size="9.00">_package1</text>
</g>
<g id="clust3" class="cluster">
<title>cluster_src/_package1/_package2</title>
<path fill="#ffffff" stroke="black" stroke-width="2" d="M704.65,-50C704.65,-50 833.15,-50 833.15,-50 839.15,-50 845.15,-56 845.15,-62 845.15,-62 845.15,-90 845.15,-90 845.15,-96 839.15,-102 833.15,-102 833.15,-102 704.65,-102 704.65,-102 698.65,-102 692.65,-96 692.65,-90 692.65,-90 692.65,-62 692.65,-62 692.65,-56 698.65,-50 704.65,-50"/>
<text text-anchor="middle" x="768.9" y="-90.8" font-family="Helvetica,sans-Serif" font-weight="bold" font-size="9.00">_package2</text>
</g>
<!-- src/_package1/_package2/_private.ts -->
<g id="node1" class="node">
<title>src/_package1/_package2/_private.ts</title>
<g id="a_node1"><a xlink:href="src/_package1/_package2/_private.ts" xlink:title="_private.ts">
<path fill="#ddfeff" stroke="black" d="M831.15,-76C831.15,-76 779.15,-76 779.15,-76 776.15,-76 773.15,-73 773.15,-70 773.15,-70 773.15,-64 773.15,-64 773.15,-61 776.15,-58 779.15,-58 779.15,-58 831.15,-58 831.15,-58 834.15,-58 837.15,-61 837.15,-64 837.15,-64 837.15,-70 837.15,-70 837.15,-73 834.15,-76 831.15,-76"/>
<text text-anchor="start" x="781.15" y="-64.8" font-family="Helvetica,sans-Serif" font-size="9.00">_private.ts</text>
</a>
</g>
</g>
<!-- src/_package1/_package2/calc.ts -->
<g id="node2" class="node">
<title>src/_package1/_package2/calc.ts</title>
<g id="a_node2"><a xlink:href="src/_package1/_package2/calc.ts" xlink:title="calc.ts">
<path fill="#ddfeff" stroke="black" d="M748.65,-76C748.65,-76 706.65,-76 706.65,-76 703.65,-76 700.65,-73 700.65,-70 700.65,-70 700.65,-64 700.65,-64 700.65,-61 703.65,-58 706.65,-58 706.65,-58 748.65,-58 748.65,-58 751.65,-58 754.65,-61 754.65,-64 754.65,-64 754.65,-70 754.65,-70 754.65,-73 751.65,-76 748.65,-76"/>
<text text-anchor="start" x="712.65" y="-64.8" font-family="Helvetica,sans-Serif" font-size="9.00">calc.ts</text>
</a>
</g>
</g>
<!-- src/_package1/_package2/calc.ts&#45;&gt;src/_package1/_package2/_private.ts -->
<g id="edge1" class="edge">
<title>src/_package1/_package2/calc.ts&#45;&gt;src/_package1/_package2/_private.ts</title>
<path fill="none" stroke="#000000" stroke-width="2" stroke-opacity="0.200000" d="M755.06,-67C758.85,-67 762.81,-67 766.77,-67"/>
<polygon fill="#000000" fill-opacity="0.200000" stroke="#000000" stroke-width="2" stroke-opacity="0.200000" points="766.96,-69.1 772.96,-67 766.96,-64.9 766.96,-69.1"/>
</g>
<!-- src/_package1/importer.ts -->
<g id="node3" class="node">
<title>src/_package1/importer.ts</title>
<g id="a_node3"><a xlink:href="src/_package1/importer.ts" xlink:title="importer.ts">
<path fill="#ddfeff" stroke="black" d="M676.15,-98C676.15,-98 622.15,-98 622.15,-98 619.15,-98 616.15,-95 616.15,-92 616.15,-92 616.15,-86 616.15,-86 616.15,-83 619.15,-80 622.15,-80 622.15,-80 676.15,-80 676.15,-80 679.15,-80 682.15,-83 682.15,-86 682.15,-86 682.15,-92 682.15,-92 682.15,-95 679.15,-98 676.15,-98"/>
<text text-anchor="start" x="624.15" y="-86.8" font-family="Helvetica,sans-Serif" font-size="9.00">importer.ts</text>
</a>
</g>
</g>
<!-- src/_package1/importer.ts&#45;&gt;src/_package1/_package2/_private.ts -->
<g id="edge2" class="edge">
<title>src/_package1/importer.ts&#45;&gt;src/_package1/_package2/_private.ts</title>
<g id="a_edge2"><a xlink:title="2. &#39;_&#39;から始まるファイルは同階層に置かれたファイルからのみimport可能">
<path fill="none" stroke="red" stroke-width="2" d="M682.21,-89.19C704.31,-88.78 734.25,-87.14 760.15,-82 765.16,-81.01 770.37,-79.59 775.4,-78.01"/>
<polygon fill="red" stroke="red" stroke-width="2" points="776.13,-79.98 781.17,-76.11 774.82,-75.99 776.13,-79.98"/>
</a>
</g>
<text text-anchor="middle" x="915.35" y="-79.02" font-family="Helvetica,sans-Serif" font-size="9.00" fill="red">2. &#39;_&#39;から始まるファイルは同階層に置かれたファイルからのみimport可能</text>
</g>
<!-- src/_package1/importer.ts&#45;&gt;src/_package1/_package2/calc.ts -->
<g id="edge3" class="edge">
<title>src/_package1/importer.ts&#45;&gt;src/_package1/_package2/calc.ts</title>
<path fill="none" stroke="#000000" stroke-width="2" stroke-opacity="0.200000" d="M681.71,-79.92C686.01,-78.69 690.43,-77.42 694.73,-76.18"/>
<polygon fill="#000000" fill-opacity="0.200000" stroke="#000000" stroke-width="2" stroke-opacity="0.200000" points="695.33,-78.19 700.52,-74.52 694.17,-74.16 695.33,-78.19"/>
</g>
<!-- src/exporter.ts -->
<g id="node4" class="node">
<title>src/exporter.ts</title>
<g id="a_node4"><a xlink:href="src/exporter.ts" xlink:title="exporter.ts">
<path fill="#ddfeff" stroke="black" d="M754.15,-154C754.15,-154 701.15,-154 701.15,-154 698.15,-154 695.15,-151 695.15,-148 695.15,-148 695.15,-142 695.15,-142 695.15,-139 698.15,-136 701.15,-136 701.15,-136 754.15,-136 754.15,-136 757.15,-136 760.15,-139 760.15,-142 760.15,-142 760.15,-148 760.15,-148 760.15,-151 757.15,-154 754.15,-154"/>
<text text-anchor="start" x="703.15" y="-142.8" font-family="Helvetica,sans-Serif" font-size="9.00">exporter.ts</text>
</a>
</g>
</g>
<!-- src/_package1/importer.ts&#45;&gt;src/exporter.ts -->
<g id="edge4" class="edge">
<title>src/_package1/importer.ts&#45;&gt;src/exporter.ts</title>
<path fill="none" stroke="#000000" stroke-width="2" stroke-opacity="0.200000" d="M657.46,-98.08C665.34,-107.37 678.64,-121.72 692.65,-131 693.77,-131.74 694.94,-132.46 696.14,-133.15"/>
<polygon fill="#000000" fill-opacity="0.200000" stroke="#000000" stroke-width="2" stroke-opacity="0.200000" points="695.27,-135.06 701.56,-135.99 697.22,-131.34 695.27,-135.06"/>
</g>
<!-- src/index.ts -->
<g id="node5" class="node">
<title>src/index.ts</title>
<g id="a_node5"><a xlink:href="src/index.ts" xlink:title="index.ts">
<path fill="#ddfeff" stroke="black" d="M670.15,-34C670.15,-34 628.15,-34 628.15,-34 625.15,-34 622.15,-31 622.15,-28 622.15,-28 622.15,-22 622.15,-22 622.15,-19 625.15,-16 628.15,-16 628.15,-16 670.15,-16 670.15,-16 673.15,-16 676.15,-19 676.15,-22 676.15,-22 676.15,-28 676.15,-28 676.15,-31 673.15,-34 670.15,-34"/>
<text text-anchor="start" x="630.65" y="-22.8" font-family="Helvetica,sans-Serif" font-size="9.00">index.ts</text>
</a>
</g>
</g>
<!-- src/index.ts&#45;&gt;src/_package1/_package2/calc.ts -->
<g id="edge5" class="edge">
<title>src/index.ts&#45;&gt;src/_package1/_package2/calc.ts</title>
<g id="a_edge5"><a xlink:title="1. &#39;_&#39;から始まるディレクトリ内部のファイルは、同ディレクトリ内のファイルまたは、直上のディレクトリのファイルからのみimport可能">
<path fill="none" stroke="red" stroke-width="2" d="M672.05,-34.06C675.47,-35.62 678.93,-37.3 682.15,-39 690.93,-43.65 700.29,-49.41 708.15,-54.49"/>
<polygon fill="red" stroke="red" stroke-width="2" points="707.16,-56.35 713.33,-57.88 709.46,-52.84 707.16,-56.35"/>
</a>
</g>
<text text-anchor="middle" x="346.5" y="-37.9" font-family="Helvetica,sans-Serif" font-size="9.00" fill="red">1. &#39;_&#39;から始まるディレクトリ内部のファイルは、同ディレクトリ内のファイルまたは、直上のディレクトリのファイルからのみimport可能</text>
</g>
</g>
</svg>
